Coordinates
version=1
nRows=18
nColumns=32
inDegrees=yes

Units are S.I. units (second, meters, Newtons, ...)
If the header above contains a line with 'inDegrees', this indicates whether rotational values are in degrees (yes) or radians (no).

endheader
time	pelvis_tilt	pelvis_list	pelvis_rotation	pelvis_tx	pelvis_ty	pelvis_tz	hip_flexion_r	hip_adduction_r	hip_rotation_r	knee_angle_r	knee_adduction_r	med_cond_adduction_r	lat_cond_adduction_r	patella_r_constrained_knee_angle	ankle_angle_r	subtalar_angle_r	mtp_angle_r	hip_flexion_l	hip_adduction_l	hip_rotation_l	knee_angle_l	knee_adduction_l	med_cond_adduction_l	lat_cond_adduction_l	patella_l_constrained_knee_angle	ankle_angle_l	subtalar_angle_l	mtp_angle_l	lumbar_extension	lumbar_bending	lumbar_rotation
      2.26500000	     -5.57076189	     -3.69420154	     -1.86146886	      0.16796480	      0.46990707	     -1.21559213	     92.95050496	    -47.96091071	     -1.15874601	   -120.58554203	     -9.74699896	      0.00000000	      0.00000000	     -2.10461474	     29.22319352	     18.20861415	     -0.00000000	    105.71960921	    -49.42869798	     12.26914078	   -122.31205778	     -9.64062880	     -0.00000000	     -0.00000000	     -2.13474812	     27.08575775	     19.42382035	     -0.00000000	    -32.73942267	      3.98992611	     -2.25563681
      2.27000000	     -5.81262574	     -3.71071128	     -1.87115127	      0.16767799	      0.47358147	     -1.21547047	     92.40129614	    -47.92678192	     -1.79820553	   -119.99403936	     -9.73356244	      0.00000000	      0.00000000	     -2.09429107	     29.19138158	     18.25582379	     -0.00000000	    105.17766215	    -49.42858124	     11.71992821	   -121.72082422	     -9.62108632	     -0.00000000	     -0.00000000	     -2.12442915	     26.98700348	     19.41956749	      0.00000000	    -32.41350255	      4.02502313	     -2.24531732
      2.27500000	     -6.10671205	     -3.29407236	     -1.83438470	      0.16732768	      0.47717785	     -1.21503980	     92.55899068	    -47.90881982	     -1.63249712	   -119.45339106	     -9.71468468	      0.00000000	      0.00000000	     -2.08485498	     29.15743449	     18.32309337	     -0.00000000	    104.04854155	    -49.44435653	     10.36180509	   -121.08771752	     -9.61230821	      0.00000000	      0.00000000	     -2.11337935	     26.87070778	     19.40702369	     -0.00000000	    -31.98345567	      3.55469723	     -2.44931929
      2.28000000	     -6.27337357	     -3.71501335	     -1.89122241	      0.16717668	      0.48119820	     -1.21517002	     91.27127378	    -47.83362330	     -3.05334483	   -118.78001082	     -9.70320783	      0.00000000	      0.00000000	     -2.07310227	     29.12315472	     18.34127293	     -0.00000000	    103.96482614	    -49.42614990	     10.54080942	   -120.49497315	     -9.57824904	     -0.00000000	     -0.00000000	     -2.10303401	     26.80891971	     19.41623832	      0.00000000	    -31.75996941	      4.08650122	     -2.19359694
      2.28500000	     -6.50621485	     -3.67543681	     -1.90393199	      0.16695487	      0.48507524	     -1.21496133	     90.75623554	    -47.76753528	     -3.61064173	   -118.16425865	     -9.68694340	     -0.00000000	     -0.00000000	     -2.06235537	     29.08871112	     18.38265716	     -0.00000000	    103.28584154	    -49.42739755	      9.87329645	   -119.85885227	     -9.55764464	     -0.00000000	     -0.00000000	     -2.09193161	     26.71551793	     19.41510170	      0.00000000	    -31.41867286	      4.06313689	     -2.19481813
      2.29000000	     -6.69781645	     -3.69401747	     -1.92409734	      0.16678227	      0.48904644	     -1.21478598	     90.10171192	    -47.69707940	     -4.27139094	   -117.52377353	     -9.66716706	      0.00000000	      0.00000000	     -2.05117680	     29.04823827	     18.41227878	      0.00000000	    102.63231705	    -49.42795087	      9.31351086	   -119.22246801	     -9.53038726	     -0.00000000	     -0.00000000	     -2.08082461	     26.62511889	     19.41206954	     -0.00000000	    -31.10315680	      4.08523376	     -2.16418646
      2.29500000	     -6.89833125	     -3.37389471	     -1.89025919	      0.16662523	      0.49310635	     -1.21442671	     89.93824582	    -47.70048383	     -4.33395051	   -116.92491987	     -9.64206773	      0.00000000	      0.00000000	     -2.04072483	     28.98424321	     18.52390817	     -0.00000000	    101.44720773	    -49.42064961	      8.08992937	   -118.53736733	     -9.50791052	      0.00000000	      0.00000000	     -2.06886735	     26.58213452	     19.40215559	     -0.00000000	    -30.74456900	      3.66260859	     -2.39366314
      2.30000000	     -7.09158207	     -3.67063029	     -1.95861056	      0.16651359	      0.49713733	     -1.21435357	     88.86661220	    -47.53436067	     -5.50673115	   -116.25024806	     -9.62529210	      0.00000000	      0.00000000	     -2.02894958	     28.95292304	     18.47866303	     -0.00000000	    101.24132519	    -49.43132297	      8.07922097	   -117.90515039	     -9.47149866	      0.00000000	      0.00000000	     -2.05783308	     26.40010467	     19.41287955	      0.00000000	    -30.42906892	      4.05729153	     -2.13682820
      2.30500000	     -7.29620665	     -3.66740931	     -1.97556707	      0.16644143	      0.50123554	     -1.21415388	     88.23281843	    -47.44806723	     -6.13287913	   -115.58521131	     -9.59651646	     -0.00000000	      0.00000000	     -2.01734250	     28.90649454	     18.51926469	     -0.00000000	    100.54089164	    -49.42683143	      7.46336421	   -117.23175079	     -9.43933302	     -0.00000000	     -0.00000000	     -2.04608004	     26.31281369	     19.40800088	      0.00000000	    -30.06884742	      4.06892548	     -2.10891398
      2.31000000	     -7.45463574	     -3.67783269	     -1.97470276	      0.16640998	      0.50545083	     -1.21398774	     87.53171344	    -47.37210741	     -6.77566505	   -114.92230868	     -9.56580627	      0.00000000	      0.00000000	     -2.00577267	     28.84918547	     18.54563170	     -0.00000000	     99.82501214	    -49.43294888	      6.85653243	   -116.55663106	     -9.40487652	     -0.00000000	     -0.00000000	     -2.03429698	     26.15017630	     19.40583469	     -0.00000000	    -29.76354146	      4.13588186	     -2.03805541
      2.31500000	     -7.67369908	     -3.65188670	     -2.01350193	      0.16634509	      0.50956375	     -1.21369233	     86.93567998	    -47.23264370	     -7.35787281	   -114.25370018	     -9.53740459	     -0.00000000	     -0.00000000	     -1.99410325	     28.79607091	     18.59348107	      0.00000000	     99.09861667	    -49.41112202	      6.24296063	   -115.86415450	     -9.36546068	      0.00000000	      0.00000000	     -2.02221098	     26.09933564	     19.40990161	     -0.00000000	    -29.34765050	      4.02902175	     -2.12199361
      2.32000000	     -7.87683637	     -3.04960124	     -2.03381165	      0.16626964	      0.51373785	     -1.21293154	     87.16597555	    -47.15162896	     -6.88181986	   -113.65876812	     -9.48238282	      0.00000000	      0.00000000	     -1.98371973	     28.69427410	     18.64810297	      0.00000000	     97.48269168	    -49.44010250	      4.55863395	   -115.09182973	     -9.31992515	     -0.00000000	     -0.00000000	     -2.00873137	     26.12504784	     19.40614266	     -0.00000000	    -28.91939260	      3.33250361	     -2.19994772
      2.32500000	     -8.05645063	     -3.56505218	     -2.07809110	      0.16635305	      0.51799333	     -1.21307576	     85.74528586	    -46.96834158	     -8.43308292	   -112.90443973	     -9.45781738	     -0.00000000	      0.00000000	     -1.97055421	     28.64702436	     18.65577273	      0.00000000	     97.55314493	    -49.41882596	      4.91320256	   -114.44381747	     -9.27858948	     -0.00000000	     -0.00000000	     -1.99742142	     25.85414033	     19.41122839	      0.00000000	    -28.56673805	      3.93291215	     -2.04947912
      2.33000000	     -8.23092552	     -3.08694685	     -2.10958964	      0.16635160	      0.52230626	     -1.21240163	     85.74151971	    -46.86115990	     -8.16882049	   -112.27123790	     -9.38919345	     -0.00000000	     -0.00000000	     -1.95950276	     28.56224709	     18.71570584	     -0.00000000	     96.08821846	    -49.44626147	      3.44974759	   -113.67303537	     -9.22788548	      0.00000000	      0.00000000	     -1.98396874	     25.79877332	     19.40862122	      0.00000000	    -28.15888768	      3.32954237	     -2.16017701
      2.33500000	     -8.38076440	     -3.54298304	     -2.11991169	      0.16653399	      0.52669591	     -1.21256439	     84.35925065	    -46.70048949	     -9.60665053	   -111.49713261	     -9.35614633	     -0.00000000	     -0.00000000	     -1.94599207	     28.50530257	     18.70974096	     -0.00000000	     95.99173788	    -49.41406716	      3.68898275	   -113.00008948	     -9.15650081	     -0.00000000	     -0.00000000	     -1.97222362	     25.63029583	     19.41493280	      0.00000000	    -27.80928330	      3.94964841	     -1.94796306
      2.34000000	     -8.58657539	     -3.03089710	     -2.18592718	      0.16655863	      0.53099484	     -1.21179333	     84.43157819	    -46.54834084	     -9.25296882	   -110.85768310	     -9.26280752	      0.00000000	      0.00000000	     -1.93483157	     28.39341026	     18.75663358	     -0.00000000	     94.51904814	    -49.44229001	      2.17496136	   -112.20500112	     -9.10372911	      0.00000000	      0.00000000	     -1.95834671	     25.56607803	     19.41129797	      0.00000000	    -27.34245393	      3.25504650	     -2.08577396
      2.34500000	     -8.72472689	     -3.45737153	     -2.18004246	      0.16680616	      0.53541672	     -1.21193143	     83.09672133	    -46.38942422	    -10.61058987	   -110.07764400	     -9.21854671	      0.00000000	      0.00000000	     -1.92121732	     28.32208978	     18.76443788	     -0.00000000	     94.36204177	    -49.40905831	      2.38863699	   -111.51526401	     -9.00581263	      0.00000000	      0.00000000	     -1.94630852	     25.38377622	     19.42198202	     -0.00000000	    -26.96592362	      3.82868078	     -1.93122719
      2.35000000	     -8.90239176	     -3.38667170	     -2.21652009	      0.16696132	      0.53980693	     -1.21156789	     82.50981238	    -46.21776510	    -11.03730267	   -109.35892418	     -9.12698177	     -0.00000000	     -0.00000000	     -1.90867329	     28.22014866	     18.79306989	     -0.00000000	     93.50731659	    -49.40633169	      1.70011129	   -110.75400014	     -8.91369647	     -0.00000000	     -0.00000000	     -1.93302196	     25.26085987	     19.42657591	     -0.00000000	    -26.51685869	      3.74630843	     -1.89335700
